<svg xmlns="http://www.w3.org/2000/svg" width="24" height="24" viewBox="0 0 24 24" fill="none" stroke="currentColor" stroke-width="1.8" stroke-linecap="round" stroke-linejoin="round" aria-label="Alineadores">
  <path d="M12 3c2.5 0 4.5 2 4.5 4.5 0 3.2-1 5.5-1 8.2 0 2-1.4 3.3-2.6 3.3-1.3 0-1.7-1.1-2.9-1.1S7.4 19 6.2 19c-1.2 0-2.6-1.3-2.6-3.3 0-2.7-1-5-1-8.2C2.6 5 4.6 3 7.1 3c1.1 0 2 .4 2.9 1 1-.6 2-.9 2.9-.9Z"/>
  <rect x="5" y="13" width="14" height="4" rx="2"/><path d="M7 12c2-1 8-1 10 0" />
</svg>